# xmcd CD database file
#
# Track frame offsets:
#	150
#	49521
#	99022
#	155137
#	216711
#	268772
#	307194
#
# Disc length: 4705 seconds
#
# Revision: 0
# Processed by: cddbd v1.5.2PL0 Copyright (c) Steve Scherf et al.
# Submitted via: CDex 1.70beta2
#
DISCID=64125f07
DTITLE=Dizzy Gillespie - All Star Sessions CD2
DYEAR=1957
DGENRE=Jazz
TTITLE0=Dizzy Atmosphere
TTITLE1=I'm Through with Love and Without a Word of Warning and Sweet Lorraine and Love Walked In and September Song
TTITLE2=On the Alamo and Stompin' At the Savoy and This Time the Dream's On Me and Time After Time and Gone with the Wind
TTITLE3=The Way You Look Tonight
TTITLE4=Rio Pakistan
TTITLE5=It's Only a Paper Moon
TTITLE6=Purple Sounds
EXTD=YEAR: 1957
EXTT0=
EXTT1=
EXTT2=
EXTT3=
EXTT4=
EXTT5=
EXTT6=
PLAYORDER=
